<svg xmlns="http://www.w3.org/2000/svg" version="1.1" xmlns:xlink="http://www.w3.org/1999/xlink" xmlns:svgjs="http://svgjs.dev/svgjs" width="1000" height="750" viewBox="0 0 1000 750"><rect width="1000" height="750" fill="#ffffff"></rect><g transform="matrix(0.834,0,0,0.834,82.49454545454546,115.41935708502035)"><svg viewBox="0 0 396 247" data-background-color="#ffffff" preserveAspectRatio="xMidYMid meet" height="623" width="1000" xmlns="http://www.w3.org/2000/svg" xmlns:xlink="http://www.w3.org/1999/xlink"><g id="tight-bounds" transform="matrix(1,0,0,1,0.2400000000000091,-0.09999999999999432)"><svg viewBox="0 0 395.52 247.2" height="247.2" width="395.52"><g><svg></svg></g><g><svg viewBox="0 0 395.52 247.2" height="247.2" width="395.52"><mask id="88990a87-bff4-4a34-af4e-b36957c8a360"><rect width="395.52" height="247.2" fill="white"></rect><g transform="matrix(1,0,0,1,22.400428954423603,37.08)" id="clone"><svg viewBox="0 0 350.7191420911528 173.04" height="173.04" width="350.7191420911528"><g><svg viewBox="0 0 350.7191420911528 173.04" height="173.04" width="350.7191420911528"><g><svg viewBox="0 0 350.7191420911528 173.04" height="173.04" width="350.7191420911528"><g><svg viewBox="0 0 350.7191420911528 173.04" height="173.04" width="350.7191420911528"><g id="SvgjsG1202"><svg viewBox="0 0 350.7191420911528 173.04" height="173.04" width="350.7191420911528" id="SvgjsSvg1201"><g><svg viewBox="0 0 350.7191420911528 173.04" height="173.04" width="350.7191420911528"><g transform="matrix(1,0,0,1,0,0)"><svg width="350.7191420911528" viewBox="-3.900000035762787 -58.400001525878906 189.97999572753906 94.25" height="173.04" data-palette-color="#010c80"><path d="M38-41.45Q40.25-41.45 40.25-39.35L40.25-39.35Q40.25-38.15 39.75-37.02 39.25-35.9 37.9-33.75L37.9-33.75Q36.8-31.95 31.7-24.2L31.7-24.2Q26.3-16.05 23.15-10.83 20-5.6 18.1-0.75L18.1-0.75Q17.85-0.05 17.68 0.1 17.5 0.25 17 0.3L17 0.3Q13.6 0.5 13.1 1L13.1 1Q12.8 0.85 12.6 0.65L12.6 0.65Q13.15-1.15 13.15-6.35L13.15-6.35Q13.15-10.8 12.8-16.4 12.45-22 12.1-24.95L12.1-24.95Q11.6-28.9 10.23-30.48 8.85-32.05 6.05-32.05L6.05-32.05Q4.05-32.05 2.6-31.33 1.15-30.6-0.55-28.9L-0.55-28.9Q-0.9-29.25-0.9-30.2L-0.9-30.2Q-0.9-30.65-0.85-30.85L-0.85-30.85Q-0.6-32.05 0.63-33.1 1.85-34.15 3.78-34.77 5.7-35.4 7.95-35.4L7.95-35.4Q12.2-35.4 14.05-32.98 15.9-30.55 16.35-25.15L16.35-25.15Q16.75-20.3 16.85-4.55L16.85-4.55Q17.75-6.15 20.15-10.25L20.15-10.25Q26.8-21.95 30.4-28.7 34-35.45 34.4-38.3L34.4-38.3Q34.45-38.5 34.45-38.85L34.45-38.85Q34.45-39.65 33.9-40.55L33.9-40.55Q34.15-40.6 35.1-40.9L35.1-40.9Q36.95-41.45 38-41.45L38-41.45ZM41.85 0.35Q39.55 0.35 38.2-0.88 36.85-2.1 36.85-4.8L36.85-4.8Q36.85-5.45 36.9-5.8L36.9-5.8 38.5-13.4Q39.5-18.5 39.8-19.65L39.8-19.65Q40.05-20.25 40.75-20.63 41.45-21 42.35-21L42.35-21Q43.15-21 43.67-20.68 44.2-20.35 44.25-19.95L44.25-19.95Q43.2-15.3 41.4-6.2L41.4-6.2Q41.35-5.8 41.35-5.15L41.35-5.15Q41.35-3.75 41.95-3.15 42.55-2.55 43.7-2.55L43.7-2.55Q45.7-2.55 48-3.98 50.3-5.4 52.27-7.53 54.25-9.65 55.35-11.75L55.35-11.75Q56.1-11.45 56.1-10.75L56.1-10.75Q56.1-10.25 55.9-9.73 55.7-9.2 55.65-9.05L55.65-9.05Q54.7-6.8 52.37-4.6 50.05-2.4 47.17-1.03 44.3 0.35 41.85 0.35L41.85 0.35ZM42.95-26.2Q41.75-26.2 41.12-26.9 40.5-27.6 40.5-28.8L40.5-28.8Q40.5-30.35 41.4-31.4 42.3-32.45 43.85-32.45L43.85-32.45Q45.05-32.45 45.7-31.8 46.35-31.15 46.35-29.95L46.35-29.95Q46.35-28.4 45.4-27.3 44.45-26.2 42.95-26.2L42.95-26.2ZM60.5 0.25Q58.3 0.25 56.37-0.83 54.45-1.9 53.3-3.33 52.15-4.75 52.15-5.6L52.15-5.6Q53.15-9.35 53.62-11.53 54.1-13.7 54.6-16.35L54.6-16.35Q54.75-17.3 56.15-18.45 57.55-19.6 59.47-20.43 61.4-21.25 63-21.25L63-21.25Q64.95-21.25 66.8-20.28 68.65-19.3 68.65-17.5L68.65-17.5Q68.65-15.35 65.75-14.3L65.75-14.3 65.55-14.35Q65.45-16.15 64.52-17.63 63.6-19.1 62.45-19.1L62.45-19.1Q61.35-19.1 60.12-17.9 58.9-16.7 58.7-15.6L58.7-15.6Q57.9-11.3 56.8-6.05L56.8-6.05Q57.05-4.4 58.07-3.45 59.1-2.5 61.7-2.5L61.7-2.5Q64.95-2.5 68.47-4.38 72-6.25 74.1-11.6L74.1-11.6Q75.1-11.6 75.1-10.2L75.1-10.2Q75.1-7.8 72.62-5.38 70.15-2.95 66.65-1.35 63.15 0.25 60.5 0.25L60.5 0.25ZM100.49-55.4Q102.79-55.4 104.94-54.6 107.09-53.8 108.52-52.08 109.94-50.35 109.94-47.7L109.94-47.7Q109.94-47.1 109.84-46.43 109.74-45.75 109.59-45.4L109.59-45.4Q106.14-50.4 99.39-50.4L99.39-50.4Q95.94-50.4 92.54-47.5 89.14-44.6 86.14-39.03 83.14-33.45 80.94-25.7L80.94-25.7Q79.29-19.8 78.32-15.9 77.34-12 76.14-6.5L76.14-6.5Q79.69-11.45 83.97-16.57 88.24-21.7 88.99-21.7L88.99-21.7Q89.69-21.7 91.42-21.08 93.14-20.45 93.54-19.7L93.54-19.7Q89.04-16.3 83.99-11.4L83.99-11.4Q84.19-7.05 85.49-4.78 86.79-2.5 89.04-2.5L89.04-2.5Q90.84-2.5 93.12-3.95 95.39-5.4 97.34-7.88 99.29-10.35 100.19-13.25L100.19-13.25Q100.84-13.25 101.17-12.83 101.49-12.4 101.49-11.75L101.49-11.75Q101.49-9.9 99.24-6.9 96.99-3.9 93.79-1.65 90.59 0.6 87.74 0.6L87.74 0.6Q84.84 0.6 83.12-1.78 81.39-4.15 80.94-8.3L80.94-8.3Q77.34-4.55 73.84-0.3L73.84-0.3Q73.74-0.15 73.44 0.28 73.14 0.7 72.94 0.7L72.94 0.7Q72.54 0.7 71.87 0.08 71.19-0.55 71.14-1L71.14-1Q71.04-2.45 73.27-12.5 75.49-22.55 77.24-28.8L77.24-28.8Q79.64-37.3 83.24-43.28 86.84-49.25 91.27-52.33 95.69-55.4 100.49-55.4L100.49-55.4ZM103.84 0.35Q101.54 0.35 100.19-0.88 98.84-2.1 98.84-4.8L98.84-4.8Q98.84-5.45 98.89-5.8L98.89-5.8 100.49-13.4Q101.49-18.5 101.79-19.65L101.79-19.65Q102.04-20.25 102.74-20.63 103.44-21 104.34-21L104.34-21Q105.14-21 105.67-20.68 106.19-20.35 106.24-19.95L106.24-19.95Q105.19-15.3 103.39-6.2L103.39-6.2Q103.34-5.8 103.34-5.15L103.34-5.15Q103.34-3.75 103.94-3.15 104.54-2.55 105.69-2.55L105.69-2.55Q107.69-2.55 109.99-3.98 112.29-5.4 114.27-7.53 116.24-9.65 117.34-11.75L117.34-11.75Q118.09-11.45 118.09-10.75L118.09-10.75Q118.09-10.25 117.89-9.73 117.69-9.2 117.64-9.05L117.64-9.05Q116.69-6.8 114.37-4.6 112.04-2.4 109.17-1.03 106.29 0.35 103.84 0.35L103.84 0.35ZM104.94-26.2Q103.74-26.2 103.12-26.9 102.49-27.6 102.49-28.8L102.49-28.8Q102.49-30.35 103.39-31.4 104.29-32.45 105.84-32.45L105.84-32.45Q107.04-32.45 107.69-31.8 108.34-31.15 108.34-29.95L108.34-29.95Q108.34-28.4 107.39-27.3 106.44-26.2 104.94-26.2L104.94-26.2ZM140.39-10.5Q141.24-10.1 141.24-8.95L141.24-8.95Q141.24-8 140.24-6.6L140.24-6.6Q137.49-2.9 132.96-1.3 128.44 0.3 123.64 0.3L123.64 0.3Q118.64 0.3 118.64-1.4L118.64-1.4Q118.64-1.95 118.84-2.38 119.04-2.8 119.09-3L119.09-3Q120.34-2.55 121.74-2.55L121.74-2.55Q124.04-2.55 125.21-3.9 126.39-5.25 126.94-7.58 127.49-9.9 128.34-15.25L128.34-15.25Q128.39-15.9 127.21-16.73 126.04-17.55 125.14-17.55L125.14-17.55Q124.49-17.55 123.49-17 122.49-16.45 121.46-15.08 120.44-13.7 119.79-11.45L119.79-11.45Q119.24-9.55 118.59-5.98 117.94-2.4 116.84 4.5L116.84 4.5Q116.64 5.85 115.36 13.6 114.09 21.35 112.59 28.35L112.59 28.35Q112.29 29.65 111.56 30.33 110.84 31 109.81 31.3 108.79 31.6 106.89 31.9L106.89 31.9Q104.14 32.3 102.19 32.85L102.19 32.85 101.69 32.6Q104.49 30.65 105.76 29.2 107.04 27.75 107.61 26 108.19 24.25 109.04 20.2L109.04 20.2Q113.09 0.7 114.56-6.95 116.04-14.6 116.79-19.05L116.79-19.05Q117.09-20.45 117.49-22.9L117.49-22.9Q117.64-23.7 117.96-24.1 118.29-24.5 118.89-24.75L118.89-24.75Q120.79-25.55 121.41-25.85 122.04-26.15 122.99-26.85L122.99-26.85Q123.29-26.75 123.39-26.55L123.39-26.55Q123.34-26.35 123.06-25.78 122.79-25.2 122.59-24.55L122.59-24.55Q122.34-23.8 121.94-22.08 121.54-20.35 121.24-19.15L121.24-19.15 120.79-17.2Q122.19-18.8 123.86-19.9 125.54-21 126.84-21L126.84-21Q127.99-21 129.54-20.2 131.09-19.4 132.24-18.23 133.39-17.05 133.44-16.1L133.44-16.1Q132.69-11.65 132.16-9.53 131.64-7.4 130.41-5.5 129.19-3.6 126.94-2.45L126.94-2.45Q130.99-2.75 134.24-4.7 137.49-6.65 140.39-10.5L140.39-10.5ZM166.29-12.05Q167.19-12.05 167.19-10.55L167.19-10.55Q167.19-8.15 165.26-5.53 163.34-2.9 160.49-1.15 157.64 0.6 155.24 0.6L155.24 0.6Q153.34 0.6 151.91-0.5 150.49-1.6 149.89-3.35L149.89-3.35Q148.54-1.65 146.64-0.63 144.74 0.4 143.24 0.4L143.24 0.4Q141.94 0.4 140.64-0.38 139.34-1.15 138.44-2.35 137.54-3.55 137.49-4.75L137.49-4.75Q138.64-9.85 139.54-14.65L139.54-14.65Q139.74-15.65 141.24-17.18 142.74-18.7 144.84-19.8 146.94-20.9 148.84-20.9L148.84-20.9Q150.59-20.9 152.39-19.85L152.39-19.85Q152.74-20.7 152.94-20.93 153.14-21.15 153.54-21.2L153.54-21.2 157.89-21.45 158.04-21.35Q157.44-20.85 157.14-20.25 156.84-19.65 156.59-18.85L156.59-18.85Q155.69-15.8 154.74-11.48 153.79-7.15 153.79-5.5L153.79-5.5Q153.79-4.1 154.46-2.95 155.14-1.8 156.59-1.8L156.59-1.8Q158.09-1.8 160.06-3.1 162.04-4.4 163.76-6.75 165.49-9.1 166.29-12.05L166.29-12.05ZM144.84-2.6Q145.54-2.6 146.54-3.3 147.54-4 148.41-5.2 149.29-6.4 149.64-7.85L149.64-7.85 150.44-11.6Q151.34-16.2 151.69-17.65L151.69-17.65Q150.39-18.25 148.94-18.25L148.94-18.25Q146.59-18.25 145.41-16.78 144.24-15.3 143.84-13.45L143.84-13.45 142.29-5.9Q142.39-4.65 143.19-3.63 143.99-2.6 144.84-2.6L144.84-2.6ZM178.48-20.9Q179.68-20.9 181.31-20.63 182.93-20.35 183.08-19.75L183.08-19.75Q182.28-15.85 181.13-10.7 179.98-5.55 179.08-2.25L179.08-2.25Q176.03 9.25 170.11 17.45 164.18 25.65 153.68 25.65L153.68 25.65Q148.98 25.65 146.68 23.93 144.38 22.2 144.38 19.65L144.38 19.65Q144.38 17.95 145.43 16.6L145.43 16.6Q146.93 18.5 149.68 19.75 152.43 21 156.08 21L156.08 21Q160.38 21 163.73 18.85 167.08 16.7 169.88 11.55 172.68 6.4 175.08-2.5L175.08-2.5Q173.58-1.45 172.03-0.73 170.48 0 169.48 0L169.48 0Q168.48 0 167.18-0.63 165.88-1.25 164.96-2.25 164.03-3.25 164.03-4.35L164.03-4.35Q164.23-5.35 164.83-8.9L164.83-8.9Q165.73-14.95 166.73-19.4L166.73-19.4Q167.03-20.8 168.83-20.8L168.83-20.8Q169.43-20.8 170.38-20.73 171.33-20.65 171.63-20.55L171.63-20.55Q170.83-16.9 169.48-9.45L169.48-9.45Q169.03-6.65 168.73-5.3L168.73-5.3Q168.68-4.2 169.33-3.48 169.98-2.75 170.83-2.75L170.83-2.75Q171.88-2.75 173.46-3.78 175.03-4.8 175.83-5.85L175.83-5.85 176.78-11.25Q178.13-18.6 178.48-20.9L178.48-20.9Z" opacity="1" transform="matrix(1,0,0,1,0,0)" fill="black" class="wordmark-text-0" id="SvgjsPath1200" stroke-width="5" stroke="black" stroke-linejoin="round"></path></svg></g></svg></g></svg></g></svg></g><g></g></svg></g></svg></g></svg></g></mask><g mask="url(#88990a87-bff4-4a34-af4e-b36957c8a360)"><g><path xmlns="http://www.w3.org/2000/svg" d="M304.472 0c8.735 0 13.102 4.076 13.103 12.229v0c0 4.659-0.971 9.181-2.912 13.568-1.941 4.348-5.532 10.695-10.773 19.043v0c-4.27 6.988-16.305 25.526-36.105 55.612v0c-20.964 31.64-37.56 57.593-49.789 77.858-12.229 20.304-22.032 39.87-29.408 58.699v0c-0.971 2.718-1.786 4.367-2.446 4.95-0.699 0.582-2.019 0.971-3.959 1.165v0c-13.2 0.776-20.77 2.135-22.711 4.076v0c-1.165-0.582-2.135-1.262-2.912-2.038v0c2.135-6.988 3.203-20.576 3.203-40.763v0c0-17.276-0.679-36.784-2.038-58.525-1.359-21.74-2.718-38.337-4.077-49.789v0c-1.941-15.335-5.571-26.069-10.889-32.203-5.357-6.095-13.471-9.143-24.342-9.143v0c-7.764 0-14.461 1.398-20.09 4.193-5.629 2.834-11.744 7.551-18.344 14.151v0c-1.359-1.359-2.038-3.882-2.038-7.571v0c0-1.747 0.097-3.009 0.291-3.785v0c0.971-4.659 3.843-9.026 8.619-13.102 4.736-4.076 10.851-7.318 18.343-9.725 7.454-2.446 15.548-3.669 24.284-3.669v0c16.499 0 28.34 4.697 35.522 14.093 7.182 9.434 11.647 24.633 13.393 45.596v0c1.553 18.829 2.523 58.816 2.912 119.961v0c3.494-6.212 9.9-17.276 19.217-33.193v0c25.817-45.422 45.713-81.235 59.689-107.441 13.976-26.205 21.74-44.84 23.293-55.904v0c0.194-0.776 0.291-1.844 0.292-3.202v0c0-3.106-1.068-6.406-3.203-9.9v0c0.971-0.194 3.3-0.874 6.988-2.038v0c7.182-2.135 12.811-3.203 16.887-3.203z" fill="#010c80" fill-rule="nonzero" stroke="none" stroke-width="1" stroke-linecap="butt" stroke-linejoin="miter" stroke-miterlimit="10" stroke-dasharray="" stroke-dashoffset="0" font-family="none" font-weight="none" font-size="none" text-anchor="none" style="mix-blend-mode: normal" data-fill-palette-color="tertiary"></path></g></g><g transform="matrix(1,0,0,1,22.400428954423603,37.08)"><svg viewBox="0 0 350.7191420911528 173.04" height="173.04" width="350.7191420911528"><g><svg viewBox="0 0 350.7191420911528 173.04" height="173.04" width="350.7191420911528"><g><svg viewBox="0 0 350.7191420911528 173.04" height="173.04" width="350.7191420911528"><g><svg viewBox="0 0 350.7191420911528 173.04" height="173.04" width="350.7191420911528"><g id="textblocktransform"><svg viewBox="0 0 350.7191420911528 173.04" height="173.04" width="350.7191420911528" id="textblock"><g><svg viewBox="0 0 350.7191420911528 173.04" height="173.04" width="350.7191420911528"><g transform="matrix(1,0,0,1,0,0)"><svg width="350.7191420911528" viewBox="-3.900000035762787 -58.400001525878906 189.97999572753906 94.25" height="173.04" data-palette-color="#010c80"><path d="M38-41.45Q40.25-41.45 40.25-39.35L40.25-39.35Q40.25-38.15 39.75-37.02 39.25-35.9 37.9-33.75L37.9-33.75Q36.8-31.95 31.7-24.2L31.7-24.2Q26.3-16.05 23.15-10.83 20-5.6 18.1-0.75L18.1-0.75Q17.85-0.05 17.68 0.1 17.5 0.25 17 0.3L17 0.3Q13.6 0.5 13.1 1L13.1 1Q12.8 0.85 12.6 0.65L12.6 0.65Q13.15-1.15 13.15-6.35L13.15-6.35Q13.15-10.8 12.8-16.4 12.45-22 12.1-24.95L12.1-24.95Q11.6-28.9 10.23-30.48 8.85-32.05 6.05-32.05L6.05-32.05Q4.05-32.05 2.6-31.33 1.15-30.6-0.55-28.9L-0.55-28.9Q-0.9-29.25-0.9-30.2L-0.9-30.2Q-0.9-30.65-0.85-30.85L-0.85-30.85Q-0.6-32.05 0.63-33.1 1.85-34.15 3.78-34.77 5.7-35.4 7.95-35.4L7.95-35.4Q12.2-35.4 14.05-32.98 15.9-30.55 16.35-25.15L16.35-25.15Q16.75-20.3 16.85-4.55L16.85-4.55Q17.75-6.15 20.15-10.25L20.15-10.25Q26.8-21.95 30.4-28.7 34-35.45 34.4-38.3L34.4-38.3Q34.45-38.5 34.45-38.85L34.45-38.85Q34.45-39.65 33.9-40.55L33.9-40.55Q34.15-40.6 35.1-40.9L35.1-40.9Q36.95-41.45 38-41.45L38-41.45ZM41.85 0.35Q39.55 0.35 38.2-0.88 36.85-2.1 36.85-4.8L36.85-4.8Q36.85-5.45 36.9-5.8L36.9-5.8 38.5-13.4Q39.5-18.5 39.8-19.65L39.8-19.65Q40.05-20.25 40.75-20.63 41.45-21 42.35-21L42.35-21Q43.15-21 43.67-20.68 44.2-20.35 44.25-19.95L44.25-19.95Q43.2-15.3 41.4-6.2L41.4-6.2Q41.35-5.8 41.35-5.15L41.35-5.15Q41.35-3.75 41.95-3.15 42.55-2.55 43.7-2.55L43.7-2.55Q45.7-2.55 48-3.98 50.3-5.4 52.27-7.53 54.25-9.65 55.35-11.75L55.35-11.75Q56.1-11.45 56.1-10.75L56.1-10.75Q56.1-10.25 55.9-9.73 55.7-9.2 55.65-9.05L55.65-9.05Q54.7-6.8 52.37-4.6 50.05-2.4 47.17-1.03 44.3 0.35 41.85 0.35L41.85 0.35ZM42.95-26.2Q41.75-26.2 41.12-26.9 40.5-27.6 40.5-28.8L40.5-28.8Q40.5-30.35 41.4-31.4 42.3-32.45 43.85-32.45L43.85-32.45Q45.05-32.45 45.7-31.8 46.35-31.15 46.35-29.95L46.35-29.95Q46.35-28.4 45.4-27.3 44.45-26.2 42.95-26.2L42.95-26.2ZM60.5 0.25Q58.3 0.25 56.37-0.83 54.45-1.9 53.3-3.33 52.15-4.75 52.15-5.6L52.15-5.6Q53.15-9.35 53.62-11.53 54.1-13.7 54.6-16.35L54.6-16.35Q54.75-17.3 56.15-18.45 57.55-19.6 59.47-20.43 61.4-21.25 63-21.25L63-21.25Q64.95-21.25 66.8-20.28 68.65-19.3 68.65-17.5L68.65-17.5Q68.65-15.35 65.75-14.3L65.75-14.3 65.55-14.35Q65.45-16.15 64.52-17.63 63.6-19.1 62.45-19.1L62.45-19.1Q61.35-19.1 60.12-17.9 58.9-16.7 58.7-15.6L58.7-15.6Q57.9-11.3 56.8-6.05L56.8-6.05Q57.05-4.4 58.07-3.45 59.1-2.5 61.7-2.5L61.7-2.5Q64.95-2.5 68.47-4.38 72-6.25 74.1-11.6L74.1-11.6Q75.1-11.6 75.1-10.2L75.1-10.2Q75.1-7.8 72.62-5.38 70.15-2.95 66.65-1.35 63.15 0.25 60.5 0.25L60.5 0.25ZM100.49-55.4Q102.79-55.4 104.94-54.6 107.09-53.8 108.52-52.08 109.94-50.35 109.94-47.7L109.94-47.7Q109.94-47.1 109.84-46.43 109.74-45.75 109.59-45.4L109.59-45.4Q106.14-50.4 99.39-50.4L99.39-50.4Q95.94-50.4 92.54-47.5 89.14-44.6 86.14-39.03 83.14-33.45 80.94-25.7L80.94-25.7Q79.29-19.8 78.32-15.9 77.34-12 76.14-6.5L76.14-6.5Q79.69-11.45 83.97-16.57 88.24-21.7 88.99-21.7L88.99-21.7Q89.69-21.7 91.42-21.08 93.14-20.45 93.54-19.7L93.54-19.7Q89.04-16.3 83.99-11.4L83.99-11.4Q84.19-7.05 85.49-4.78 86.79-2.5 89.04-2.5L89.04-2.5Q90.84-2.5 93.12-3.95 95.39-5.4 97.34-7.88 99.29-10.35 100.19-13.25L100.19-13.25Q100.84-13.25 101.17-12.83 101.49-12.4 101.49-11.75L101.49-11.75Q101.49-9.9 99.24-6.9 96.99-3.9 93.79-1.65 90.59 0.6 87.74 0.6L87.74 0.6Q84.84 0.6 83.12-1.78 81.39-4.15 80.94-8.3L80.94-8.3Q77.34-4.55 73.84-0.3L73.84-0.3Q73.74-0.15 73.44 0.28 73.14 0.7 72.94 0.7L72.94 0.7Q72.54 0.7 71.87 0.08 71.19-0.55 71.14-1L71.14-1Q71.04-2.45 73.27-12.5 75.49-22.55 77.24-28.8L77.24-28.8Q79.64-37.3 83.24-43.28 86.84-49.25 91.27-52.33 95.69-55.4 100.49-55.4L100.49-55.4ZM103.84 0.35Q101.54 0.35 100.19-0.88 98.84-2.1 98.84-4.8L98.84-4.8Q98.84-5.45 98.89-5.8L98.89-5.8 100.49-13.4Q101.49-18.5 101.79-19.65L101.79-19.65Q102.04-20.25 102.74-20.63 103.44-21 104.34-21L104.34-21Q105.14-21 105.67-20.68 106.19-20.35 106.24-19.95L106.24-19.95Q105.19-15.3 103.39-6.2L103.39-6.2Q103.34-5.8 103.34-5.15L103.34-5.15Q103.34-3.75 103.94-3.15 104.54-2.55 105.69-2.55L105.69-2.55Q107.69-2.55 109.99-3.98 112.29-5.4 114.27-7.53 116.24-9.65 117.34-11.75L117.34-11.75Q118.09-11.45 118.09-10.75L118.09-10.75Q118.09-10.25 117.89-9.73 117.69-9.2 117.64-9.05L117.64-9.05Q116.69-6.8 114.37-4.6 112.04-2.4 109.17-1.03 106.29 0.35 103.84 0.35L103.84 0.35ZM104.94-26.2Q103.74-26.2 103.12-26.9 102.49-27.6 102.49-28.8L102.49-28.8Q102.49-30.35 103.39-31.4 104.29-32.45 105.84-32.45L105.84-32.45Q107.04-32.45 107.69-31.8 108.34-31.15 108.34-29.95L108.34-29.95Q108.34-28.4 107.39-27.3 106.44-26.2 104.94-26.2L104.94-26.2ZM140.39-10.5Q141.24-10.1 141.24-8.95L141.24-8.95Q141.24-8 140.24-6.6L140.24-6.6Q137.49-2.9 132.96-1.3 128.44 0.3 123.64 0.3L123.64 0.3Q118.64 0.3 118.64-1.4L118.64-1.4Q118.64-1.95 118.84-2.38 119.04-2.8 119.09-3L119.09-3Q120.34-2.55 121.74-2.55L121.74-2.55Q124.04-2.55 125.21-3.9 126.39-5.25 126.94-7.58 127.49-9.9 128.34-15.25L128.34-15.25Q128.39-15.9 127.21-16.73 126.04-17.55 125.14-17.55L125.14-17.55Q124.49-17.55 123.49-17 122.49-16.45 121.46-15.08 120.44-13.7 119.79-11.45L119.79-11.45Q119.24-9.55 118.59-5.98 117.94-2.4 116.84 4.5L116.84 4.5Q116.64 5.85 115.36 13.6 114.09 21.35 112.59 28.35L112.59 28.35Q112.29 29.65 111.56 30.33 110.84 31 109.81 31.3 108.79 31.6 106.89 31.9L106.89 31.9Q104.14 32.3 102.19 32.85L102.19 32.85 101.69 32.6Q104.49 30.65 105.76 29.2 107.04 27.75 107.61 26 108.19 24.25 109.04 20.2L109.04 20.2Q113.09 0.7 114.56-6.95 116.04-14.6 116.79-19.05L116.79-19.05Q117.09-20.45 117.49-22.9L117.49-22.9Q117.64-23.7 117.96-24.1 118.29-24.5 118.89-24.75L118.89-24.75Q120.79-25.55 121.41-25.85 122.04-26.15 122.99-26.85L122.99-26.85Q123.29-26.75 123.39-26.55L123.39-26.55Q123.34-26.35 123.06-25.78 122.79-25.2 122.59-24.55L122.59-24.55Q122.34-23.8 121.94-22.08 121.54-20.35 121.24-19.15L121.24-19.15 120.79-17.2Q122.19-18.8 123.86-19.9 125.54-21 126.84-21L126.84-21Q127.99-21 129.54-20.2 131.09-19.4 132.24-18.23 133.39-17.05 133.44-16.1L133.44-16.1Q132.69-11.65 132.16-9.53 131.64-7.4 130.41-5.5 129.19-3.6 126.94-2.45L126.94-2.45Q130.99-2.75 134.24-4.7 137.49-6.65 140.39-10.5L140.39-10.5ZM166.29-12.05Q167.19-12.05 167.19-10.55L167.19-10.55Q167.19-8.15 165.26-5.53 163.34-2.9 160.49-1.15 157.64 0.6 155.24 0.6L155.24 0.6Q153.34 0.6 151.91-0.5 150.49-1.6 149.89-3.35L149.89-3.35Q148.54-1.65 146.64-0.63 144.74 0.4 143.24 0.4L143.24 0.4Q141.94 0.4 140.64-0.38 139.34-1.15 138.44-2.35 137.54-3.55 137.49-4.75L137.49-4.75Q138.64-9.85 139.54-14.65L139.54-14.65Q139.74-15.65 141.24-17.18 142.74-18.7 144.84-19.8 146.94-20.9 148.84-20.9L148.84-20.9Q150.59-20.9 152.39-19.85L152.39-19.85Q152.74-20.7 152.94-20.93 153.14-21.15 153.54-21.2L153.54-21.2 157.89-21.45 158.04-21.35Q157.44-20.85 157.14-20.25 156.84-19.65 156.59-18.85L156.59-18.85Q155.69-15.8 154.74-11.48 153.79-7.15 153.79-5.5L153.79-5.5Q153.79-4.1 154.46-2.95 155.14-1.8 156.59-1.8L156.59-1.8Q158.09-1.8 160.06-3.1 162.04-4.4 163.76-6.75 165.49-9.1 166.29-12.05L166.29-12.05ZM144.84-2.6Q145.54-2.6 146.54-3.3 147.54-4 148.41-5.2 149.29-6.4 149.64-7.85L149.64-7.85 150.44-11.6Q151.34-16.2 151.69-17.65L151.69-17.65Q150.39-18.25 148.94-18.25L148.94-18.25Q146.59-18.25 145.41-16.78 144.24-15.3 143.84-13.45L143.84-13.45 142.29-5.9Q142.39-4.65 143.19-3.63 143.99-2.6 144.84-2.6L144.84-2.6ZM178.48-20.9Q179.68-20.9 181.31-20.63 182.93-20.35 183.08-19.75L183.08-19.75Q182.28-15.85 181.13-10.7 179.98-5.55 179.08-2.25L179.08-2.25Q176.03 9.25 170.11 17.45 164.18 25.65 153.68 25.65L153.68 25.65Q148.98 25.65 146.68 23.93 144.38 22.2 144.38 19.65L144.38 19.65Q144.38 17.95 145.43 16.6L145.43 16.6Q146.93 18.5 149.68 19.75 152.43 21 156.08 21L156.08 21Q160.38 21 163.73 18.85 167.08 16.7 169.88 11.55 172.68 6.4 175.08-2.5L175.08-2.5Q173.58-1.45 172.03-0.73 170.48 0 169.48 0L169.48 0Q168.48 0 167.18-0.63 165.88-1.25 164.96-2.25 164.03-3.25 164.03-4.35L164.03-4.35Q164.23-5.35 164.83-8.9L164.83-8.9Q165.73-14.95 166.73-19.4L166.73-19.4Q167.03-20.8 168.83-20.8L168.83-20.8Q169.43-20.8 170.38-20.73 171.33-20.65 171.63-20.55L171.63-20.55Q170.83-16.9 169.48-9.45L169.48-9.45Q169.03-6.65 168.73-5.3L168.73-5.3Q168.68-4.2 169.33-3.48 169.98-2.75 170.83-2.75L170.83-2.75Q171.88-2.75 173.46-3.78 175.03-4.8 175.83-5.85L175.83-5.85 176.78-11.25Q178.13-18.6 178.48-20.9L178.48-20.9Z" opacity="1" transform="matrix(1,0,0,1,0,0)" fill="#010c80" class="wordmark-text-0" data-fill-palette-color="primary" id="text-0"></path></svg></g></svg></g></svg></g></svg></g><g></g></svg></g></svg></g></svg></g></svg></g><defs></defs></svg><rect width="395.52" height="247.2" fill="none" stroke="none" visibility="hidden"></rect></g></svg></g></svg>